<svg width="221" height="56" viewBox="0 0 221 56" fill="none" xmlns="http://www.w3.org/2000/svg">
<rect x="0.5" width="220" height="56" rx="28" fill="#FFE24B"/>
<path d="M87.661 22.832V24.64H84.685V34H82.445V24.64H79.469V22.832H87.661ZM89.4694 29.536C89.4694 28.64 89.6454 27.8453 89.9974 27.152C90.3601 26.4587 90.8454 25.9253 91.4534 25.552C92.0721 25.1787 92.7601 24.992 93.5174 24.992C94.1787 24.992 94.7547 25.1253 95.2454 25.392C95.7467 25.6587 96.1467 25.9947 96.4454 26.4V25.136H98.7014V34H96.4454V32.704C96.1574 33.12 95.7574 33.4667 95.2454 33.744C94.7441 34.0107 94.1627 34.144 93.5014 34.144C92.7547 34.144 92.0721 33.952 91.4534 33.568C90.8454 33.184 90.3601 32.6453 89.9974 31.952C89.6454 31.248 89.4694 30.4427 89.4694 29.536ZM96.4454 29.568C96.4454 29.024 96.3387 28.56 96.1254 28.176C95.9121 27.7813 95.6241 27.4827 95.2614 27.28C94.8987 27.0667 94.5094 26.96 94.0934 26.96C93.6774 26.96 93.2934 27.0613 92.9414 27.264C92.5894 27.4667 92.3014 27.7653 92.0774 28.16C91.8641 28.544 91.7574 29.0027 91.7574 29.536C91.7574 30.0693 91.8641 30.5387 92.0774 30.944C92.3014 31.3387 92.5894 31.6427 92.9414 31.856C93.3041 32.0693 93.6881 32.176 94.0934 32.176C94.5094 32.176 94.8987 32.0747 95.2614 31.872C95.6241 31.6587 95.9121 31.36 96.1254 30.976C96.3387 30.5813 96.4454 30.112 96.4454 29.568ZM112.647 25.008C113.735 25.008 114.61 25.344 115.271 26.016C115.943 26.6773 116.279 27.6053 116.279 28.8V34H114.039V29.104C114.039 28.4107 113.863 27.8827 113.511 27.52C113.159 27.1467 112.679 26.96 112.071 26.96C111.463 26.96 110.978 27.1467 110.615 27.52C110.263 27.8827 110.087 28.4107 110.087 29.104V34H107.847V29.104C107.847 28.4107 107.671 27.8827 107.319 27.52C106.967 27.1467 106.487 26.96 105.879 26.96C105.26 26.96 104.77 27.1467 104.407 27.52C104.055 27.8827 103.879 28.4107 103.879 29.104V34H101.639V25.136H103.879V26.208C104.167 25.8347 104.535 25.5413 104.983 25.328C105.442 25.1147 105.943 25.008 106.487 25.008C107.18 25.008 107.799 25.1573 108.343 25.456C108.887 25.744 109.308 26.16 109.607 26.704C109.895 26.192 110.311 25.7813 110.855 25.472C111.41 25.1627 112.007 25.008 112.647 25.008ZM118.579 29.536C118.579 28.64 118.755 27.8453 119.107 27.152C119.469 26.4587 119.955 25.9253 120.563 25.552C121.181 25.1787 121.869 24.992 122.627 24.992C123.288 24.992 123.864 25.1253 124.355 25.392C124.856 25.6587 125.256 25.9947 125.555 26.4V25.136H127.811V34H125.555V32.704C125.267 33.12 124.867 33.4667 124.355 33.744C123.853 34.0107 123.272 34.144 122.611 34.144C121.864 34.144 121.181 33.952 120.563 33.568C119.955 33.184 119.469 32.6453 119.107 31.952C118.755 31.248 118.579 30.4427 118.579 29.536ZM125.555 29.568C125.555 29.024 125.448 28.56 125.235 28.176C125.021 27.7813 124.733 27.4827 124.371 27.28C124.008 27.0667 123.619 26.96 123.203 26.96C122.787 26.96 122.403 27.0613 122.051 27.264C121.699 27.4667 121.411 27.7653 121.187 28.16C120.973 28.544 120.867 29.0027 120.867 29.536C120.867 30.0693 120.973 30.5387 121.187 30.944C121.411 31.3387 121.699 31.6427 122.051 31.856C122.413 32.0693 122.797 32.176 123.203 32.176C123.619 32.176 124.008 32.0747 124.371 31.872C124.733 31.6587 125.021 31.36 125.235 30.976C125.448 30.5813 125.555 30.112 125.555 29.568ZM141.757 25.008C142.845 25.008 143.719 25.344 144.381 26.016C145.053 26.6773 145.389 27.6053 145.389 28.8V34H143.149V29.104C143.149 28.4107 142.973 27.8827 142.621 27.52C142.269 27.1467 141.789 26.96 141.181 26.96C140.573 26.96 140.087 27.1467 139.725 27.52C139.373 27.8827 139.197 28.4107 139.197 29.104V34H136.957V29.104C136.957 28.4107 136.781 27.8827 136.429 27.52C136.077 27.1467 135.597 26.96 134.989 26.96C134.37 26.96 133.879 27.1467 133.517 27.52C133.165 27.8827 132.989 28.4107 132.989 29.104V34H130.749V25.136H132.989V26.208C133.277 25.8347 133.645 25.5413 134.093 25.328C134.551 25.1147 135.053 25.008 135.597 25.008C136.29 25.008 136.909 25.1573 137.453 25.456C137.997 25.744 138.418 26.16 138.717 26.704C139.005 26.192 139.421 25.7813 139.965 25.472C140.519 25.1627 141.117 25.008 141.757 25.008Z" fill="black"/>
</svg>
