<svg width="68" height="1024" viewBox="0 0 68 1024" fill="none" xmlns="http://www.w3.org/2000/svg">
<rect width="68" height="200" transform="translate(0 140)" fill="url(#paint0_linear)" fill-opacity="0.11"/>
<path fill-rule="evenodd" clip-rule="evenodd" d="M35.1262 230.523C34.8029 230.288 34.3642 230.288 34.0401 230.523L28.1179 234.831V245.611C28.1179 246.121 28.5317 246.535 29.0415 246.535H30.8887V240.993C30.8887 239.463 32.1291 238.223 33.6595 238.223H35.5067C37.0371 238.223 38.2775 239.463 38.2775 240.993V246.535H40.1247C40.6346 246.535 41.0483 246.121 41.0483 245.611V234.831L35.1262 230.523ZM42.8955 236.174L44.1997 237.123C44.6116 237.423 45.1898 237.331 45.4899 236.918C45.7901 236.506 45.6987 235.928 45.2858 235.628L36.2133 229.03C35.2407 228.323 33.9255 228.323 32.953 229.03L23.8804 235.628C23.4676 235.928 23.3771 236.506 23.6763 236.918C23.9765 237.331 24.5547 237.423 24.9666 237.123L26.2707 236.174V245.611C26.2707 247.142 27.5111 248.382 29.0415 248.382H40.1247C41.6551 248.382 42.8955 247.142 42.8955 245.611V236.174ZM36.4303 246.535V240.993C36.4303 240.483 36.0166 240.07 35.5067 240.07H33.6595C33.1497 240.07 32.7359 240.483 32.7359 240.993V246.535H36.4303Z" fill="#FFE24B"/>
<path fill-rule="evenodd" clip-rule="evenodd" d="M31.7297 445.959C27.1846 445.959 23.5 442.275 23.5 437.73C23.5 433.185 27.1846 429.5 31.7297 429.5C36.2749 429.5 39.9595 433.185 39.9595 437.73C39.9595 439.696 39.2701 441.501 38.12 442.916L44.2506 449.047C44.5831 449.379 44.5831 449.918 44.2506 450.251C43.9182 450.583 43.3791 450.583 43.0467 450.251L36.916 444.12C35.5006 445.27 33.6957 445.959 31.7297 445.959ZM31.7297 444.257C35.3345 444.257 38.2568 441.335 38.2568 437.73C38.2568 434.125 35.3345 431.203 31.7297 431.203C28.125 431.203 25.2027 434.125 25.2027 437.73C25.2027 441.335 28.125 444.257 31.7297 444.257Z" fill="white"/>
<path fill-rule="evenodd" clip-rule="evenodd" d="M23.5 634.458C23.5 633.008 24.6751 631.833 26.125 631.833H41.875C43.3249 631.833 44.5 633.008 44.5 634.458V644.958C44.5 646.408 43.3249 647.583 41.875 647.583H26.125C24.6751 647.583 23.5 646.408 23.5 644.958V634.458ZM26.125 633.583C25.642 633.583 25.25 633.975 25.25 634.458V635.333H42.75V634.458C42.75 633.975 42.358 633.583 41.875 633.583H26.125ZM42.75 637.083H25.25V644.958C25.25 645.441 25.642 645.833 26.125 645.833H41.875C42.358 645.833 42.75 645.441 42.75 644.958V637.083ZM27 643.208C27 642.725 27.392 642.333 27.875 642.333H33.125C33.608 642.333 34 642.725 34 643.208C34 643.691 33.608 644.083 33.125 644.083H27.875C27.392 644.083 27 643.691 27 643.208Z" fill="white"/>
<path fill-rule="evenodd" clip-rule="evenodd" d="M34 850.5C39.799 850.5 44.5 845.799 44.5 840C44.5 834.201 39.799 829.5 34 829.5C28.201 829.5 23.5 834.201 23.5 840C23.5 845.799 28.201 850.5 34 850.5ZM26.957 845.417C25.8022 843.917 25.1154 842.039 25.1154 840C25.1154 835.093 29.0932 831.115 34 831.115C38.9068 831.115 42.8846 835.093 42.8846 840C42.8846 842.039 42.1976 843.918 41.0423 845.418C40.5152 844.94 39.8416 844.594 38.9551 844.275C38.8223 844.227 38.6862 844.18 38.5163 844.123L38.1025 843.984C37.0963 843.645 36.7403 843.429 36.6575 843.156C36.6547 843.147 36.6502 843.13 36.6439 843.097C36.6081 842.908 36.6163 842.701 36.6898 842.53C36.7332 842.428 36.7994 842.338 36.8986 842.255C38.0144 841.248 38.5769 840.113 38.5769 838.564C38.5769 835.866 36.4661 833.808 34 833.808C31.517 833.808 29.4231 835.831 29.4231 838.564C29.4231 840.108 29.971 841.21 31.047 842.224C31.1855 842.341 31.255 842.426 31.3023 842.516C31.3938 842.689 31.4055 842.89 31.3654 843.076C31.3625 843.089 31.3602 843.099 31.3587 843.105C31.3568 843.113 31.3563 843.115 31.3578 843.111C31.2781 843.394 30.948 843.597 30.0176 843.915L29.541 844.076C29.3422 844.143 29.1842 844.199 29.0295 844.256C28.1577 844.578 27.484 844.933 26.957 845.417ZM28.057 846.604C29.6312 848.022 31.7149 848.885 34 848.885C36.2846 848.885 38.3678 848.022 39.9419 846.605C39.5894 846.293 39.1009 846.044 38.408 845.795C38.2875 845.751 38.1613 845.708 38.0012 845.654L37.5861 845.515C36.0834 845.008 35.4069 844.598 35.1158 843.638C35.0974 843.581 35.0762 843.5 35.0568 843.398C34.9663 842.92 34.9867 842.402 35.2052 841.893C35.3474 841.561 35.5658 841.264 35.8391 841.036C36.6089 840.341 36.9615 839.629 36.9615 838.564C36.9615 836.768 35.5828 835.423 34 835.423C32.397 835.423 31.0385 836.736 31.0385 838.564C31.0385 839.628 31.383 840.321 32.1159 841.014C32.3794 841.232 32.5844 841.484 32.7311 841.762C33.0244 842.318 33.0578 842.892 32.9442 843.417C32.921 843.525 32.8954 843.61 32.8953 843.601C32.641 844.545 31.9832 844.951 30.5398 845.444L30.06 845.606C29.8736 845.669 29.728 845.72 29.5888 845.771C28.9039 846.024 28.4125 846.282 28.057 846.604Z" fill="white"/>
<defs>
<linearGradient id="paint0_linear" x1="34" y1="0" x2="34" y2="200" gradientUnits="userSpaceOnUse">
<stop stop-color="white" stop-opacity="0"/>
<stop offset="0.508488" stop-color="white" stop-opacity="0.68"/>
<stop offset="1" stop-color="white" stop-opacity="0"/>
</linearGradient>
</defs>
</svg>
